<?xml version="1.0" encoding="utf-8"?><svg xmlns="http://www.w3.org/2000/svg" xmlns:xlink="http://www.w3.org/1999/xlink"><symbol viewBox="0 0 5.5 5.5" id="ico-arrow" xmlns="http://www.w3.org/2000/svg"><path d="M3.15 5.854a.5.5 0 00.5.5h4.5a.5.5 0 100-1h-4v-4a.5.5 0 00-1 0v4.5zm.854-1.061l-.707.707.707.707.707-.707-.707-.707z"/></symbol><symbol viewBox="0 0 13 18" id="ico-bank" xmlns="http://www.w3.org/2000/svg"><path d="M11.96 5.958v-.924h.048c.196 0 .35-.18.35-.375V1.35a.349.349 0 00-.35-.351H2.983a.338.338 0 00-.338.35v3.308c0 .196.143.376.338.376h.061v.925c0 .002-.012.004-.017.007l-.053.026-.067.034-.052.03a.81.81 0 00-.063.035l-.051.03-.06.038-.052.034-.057.039-.05.035a3.269 3.269 0 00-.26.206l-.046.04-.05.047-.045.042a6.428 6.428 0 00-.05.049l-.042.043-.048.052a.548.548 0 00-.04.044l-.048.054-.038.044-.048.06-.034.042c-.02.025-.038.05-.057.076l-.032.044a3.91 3.91 0 00-.062.09l-.028.043-.043.067-.03.049-.037.063-.029.052-.033.062-.028.054-.031.063c-.01.018-.018.037-.026.055l-.029.064a2.753 2.753 0 00-.073.179 2.953 2.953 0 00-.085.25 3.029 3.029 0 00-.035.126l-.018.07-.014.059a4.336 4.336 0 00-.048.261l-.01.075-.007.057-.008.08-.005.054-.005.09c0 .014.003.03.002.044-.001.045.002.09.002.135v7.753c0 1.1.89 1.993 1.99 1.995h9.004A2.005 2.005 0 0014 17.004V9.253a3.695 3.695 0 00-.614-2.05 3.54 3.54 0 00-1.426-1.245zM3.355 1.709h8.294v2.616H3.355V1.71zm9.935 15.294a1.295 1.295 0 01-1.293 1.288H2.996a1.284 1.284 0 01-1.282-1.287V9.252a2.983 2.983 0 01.688-1.911c.023-.028.045-.065.07-.092.292-.323.652-.58 1.053-.751h.003a.321.321 0 00.226-.308V5.034h7.496V6.19c0 .145.088.276.223.33 1.088.429 1.817 1.527 1.817 2.733v7.75z"/></symbol><symbol viewBox="0 0 10.5 7.46" id="ico-btn-arrow" xmlns="http://www.w3.org/2000/svg"><path d="M10.354 4.354a.5.5 0 000-.708L7.172.464a.5.5 0 10-.708.708L9.293 4 6.464 6.828a.5.5 0 10.708.708l3.182-3.182zM0 4.5h10v-1H0v1z"/></symbol><symbol viewBox="0 0 10.5 7.46" id="ico-btn-arrow-w" xmlns="http://www.w3.org/2000/svg"><path d="M10.354 4.354a.5.5 0 000-.708L7.172.464a.5.5 0 10-.708.708L9.293 4 6.464 6.828a.5.5 0 10.708.708l3.182-3.182zM0 4.5h10v-1H0v1z"/></symbol><symbol viewBox="0 0 23.91 18" id="ico-car-green" xmlns="http://www.w3.org/2000/svg"><path d="M20.923 16.233h1.539a2.447 2.447 0 002.444-2.443v-1.973A3.8 3.8 0 0023.79 9.14l-2.228-2.214-1.84-3.984A3.36 3.36 0 0016.684 1H3.64A2.643 2.643 0 001 3.64v10.15a2.446 2.446 0 002.442 2.444l.635-.001m6.458-.168h3.51M11 15.5a3.5 3.5 0 11-7 0 3.5 3.5 0 017 0zm10 0a3.5 3.5 0 11-7 0 3.5 3.5 0 017 0z" stroke="#006771"/></symbol><symbol viewBox="0 0 28.2 23.27" id="ico-cart" xmlns="http://www.w3.org/2000/svg"><path d="M25.672 22.552l1.126-11.227h.738A1.56 1.56 0 0029.1 9.77V7.072c0-.858-.702-1.555-1.564-1.555h-4.575a.53.53 0 00-.074-.076h0l-5.301-4.42h0a.527.527 0 00-.738.065h-.001a.521.521 0 00.065.736h0l4.432 3.695H8.656l4.431-3.695s0 0 0 0a.519.519 0 00.065-.735.525.525 0 00-.737-.065h0l-5.3 4.42a.524.524 0 00-.074.075H2.464C1.602 5.517.9 6.214.9 7.072V9.77c0 .858.702 1.555 1.564 1.555h.74L4.33 22.552s0 0 0 0A1.718 1.718 0 006.049 24.1h17.902c.89 0 1.63-.665 1.72-1.547h0zM5.373 22.45L4.257 11.325h21.486l-1.116 11.124a.675.675 0 01-.676.607H6.049a.674.674 0 01-.676-.607h0zM1.948 7.07c0-.281.23-.511.516-.511h25.072c.285 0 .515.23.515.511v2.7a.514.514 0 01-.515.511H2.464a.514.514 0 01-.516-.511v-2.7zm6.38 13.06a.524.524 0 001.049.001v-6.115a.523.523 0 00-1.049 0v6.115zm4.099 0a.523.523 0 001.048.001v-6.115a.523.523 0 00-1.048 0v6.115zm4.098 0c0 .29.235.523.524.523a.523.523 0 00.524-.522v-6.115a.523.523 0 00-1.048 0v6.115zm4.098 0c0 .29.235.523.524.523a.523.523 0 00.525-.522v-6.115a.523.523 0 00-1.049 0v6.115z" stroke="#F8AE3E" stroke-width=".2"/></symbol><symbol viewBox="0 0 24 20.01" id="ico-cart-added" xmlns="http://www.w3.org/2000/svg"><path d="M19.672 20H4.328c-.72 0-1.316-.545-1.388-1.267L1.934 8.56a.367.367 0 01.362-.403h19.41a.368.368 0 01.362.403l-1.006 10.173A1.398 1.398 0 0119.672 20zM2.697 8.891l.966 9.769c.035.346.32.607.664.607h15.345c.345 0 .63-.26.665-.607l.966-9.769H2.697zM5.53 4.577a.367.367 0 01-.234-.648L9.84.087a.361.361 0 01.512.046.366.366 0 01-.046.516L5.764 4.491a.36.36 0 01-.233.086zm12.94 0a.363.363 0 01-.233-.086L13.694.648a.37.37 0 01-.045-.517.363.363 0 01.513-.046l4.543 3.844a.37.37 0 01.045.517.362.362 0 01-.28.131z"/><path d="M22.745 8.891H1.256A1.261 1.261 0 010 7.626V5.28c0-.697.563-1.265 1.255-1.265h21.49c.692 0 1.255.568 1.255 1.265v2.346c0 .697-.562 1.265-1.255 1.265zM1.256 4.748a.53.53 0 00-.528.532v2.345a.53.53 0 00.528.532h21.49a.53.53 0 00.528-.532V5.28a.53.53 0 00-.527-.532H1.255zM6.73 17.003a.365.365 0 01-.363-.367V11.32c0-.203.163-.367.364-.367.2 0 .364.164.364.367v5.317a.364.364 0 01-.364.367zm3.514 0a.365.365 0 01-.364-.367V11.32c0-.203.163-.367.364-.367.2 0 .363.164.363.367v5.317a.364.364 0 01-.363.367zm3.512 0a.365.365 0 01-.363-.367V11.32c0-.203.163-.367.363-.367.201 0 .364.164.364.367v5.317a.365.365 0 01-.364.367zm3.514 0a.365.365 0 01-.365-.367V11.32c0-.203.163-.367.364-.367.2 0 .364.164.364.367v5.317a.365.365 0 01-.364.367z"/></symbol><symbol viewBox="0 0 24 20.01" id="ico-cart-cat" xmlns="http://www.w3.org/2000/svg"><path d="M19.672 20H4.328c-.72 0-1.316-.545-1.388-1.267L1.934 8.56a.367.367 0 01.362-.403h19.41a.368.368 0 01.362.403l-1.006 10.173A1.398 1.398 0 0119.672 20zM2.697 8.891l.966 9.769c.035.346.32.607.664.607h15.345c.345 0 .63-.26.665-.607l.966-9.769H2.697zM5.53 4.577a.367.367 0 01-.234-.648L9.84.087a.361.361 0 01.512.046.366.366 0 01-.046.516L5.764 4.491a.36.36 0 01-.233.086zm12.94 0a.363.363 0 01-.233-.086L13.694.648a.37.37 0 01-.045-.517.363.363 0 01.513-.046l4.543 3.844a.37.37 0 01.045.517.362.362 0 01-.28.131z"/><path d="M22.745 8.891H1.256A1.261 1.261 0 010 7.626V5.28c0-.697.563-1.265 1.255-1.265h21.49c.692 0 1.255.568 1.255 1.265v2.346c0 .697-.562 1.265-1.255 1.265zM1.256 4.748a.53.53 0 00-.528.532v2.345a.53.53 0 00.528.532h21.49a.53.53 0 00.528-.532V5.28a.53.53 0 00-.527-.532H1.255zM6.73 17.003a.365.365 0 01-.363-.367V11.32c0-.203.163-.367.364-.367.2 0 .364.164.364.367v5.317a.364.364 0 01-.364.367zm3.514 0a.365.365 0 01-.364-.367V11.32c0-.203.163-.367.364-.367.2 0 .363.164.363.367v5.317a.364.364 0 01-.363.367zm3.512 0a.365.365 0 01-.363-.367V11.32c0-.203.163-.367.363-.367.201 0 .364.164.364.367v5.317a.365.365 0 01-.364.367zm3.514 0a.365.365 0 01-.365-.367V11.32c0-.203.163-.367.364-.367.2 0 .364.164.364.367v5.317a.365.365 0 01-.364.367z"/></symbol><symbol viewBox="0 0 23 19.5" id="ico-cart-cat-w" xmlns="http://www.w3.org/2000/svg"><path d="M10 1L5 5.5M14 1l5 4.5m-17 4l1.441 10.568a.5.5 0 00.495.432h16.128a.5.5 0 00.495-.432L22 9.5M6.5 12v6m3.5-6v6m4-6v6m3.5-6v6M1 5.5a.5.5 0 00-.5.5v3a.5.5 0 00.5.5h22a.5.5 0 00.5-.5V6a.5.5 0 00-.5-.5H1z" stroke="#fff"/></symbol><symbol viewBox="0 0 18.3 18.3" id="ico-clock" xmlns="http://www.w3.org/2000/svg"><path d="M10 .85C4.955.85.85 4.955.85 10s4.105 9.15 9.15 9.15 9.15-4.105 9.15-9.15S15.045.85 10 .85zm0 17.4c-4.549 0-8.25-3.701-8.25-8.25 0-4.549 3.701-8.25 8.25-8.25 4.549 0 8.25 3.701 8.25 8.25 0 4.549-3.701 8.25-8.25 8.25z" stroke="#006771" stroke-width=".3"/><path d="M10 4.65a.45.45 0 00-.45.45v4.75H6.2a.45.45 0 100 .9H10a.45.45 0 00.45-.45V5.1a.45.45 0 00-.45-.45z" stroke="#006771" stroke-width=".3"/></symbol><symbol viewBox="0 0 11.09 11.09" id="ico-close" xmlns="http://www.w3.org/2000/svg"><g clip-path="url(#akclip0)"><path d="M10.87.13a.444.444 0 00-.628 0L.13 10.242a.444.444 0 10.629.628L10.869.76a.444.444 0 000-.629z"/><path d="M10.87 10.242L.759.13A.444.444 0 10.13.76l10.112 10.11a.443.443 0 00.628 0 .444.444 0 000-.628z"/></g><defs><clipPath id="akclip0"><path d="M0 0h11v11H0z"/></clipPath></defs></symbol><symbol viewBox="0 0 11.09 11.09" id="ico-close-w" xmlns="http://www.w3.org/2000/svg"><g clip-path="url(#alclip0)"><path d="M10.87.13a.444.444 0 00-.628 0L.13 10.242a.444.444 0 10.629.628L10.869.76a.444.444 0 000-.629z"/><path d="M10.87 10.242L.759.13A.444.444 0 10.13.76l10.112 10.11a.443.443 0 00.628 0 .444.444 0 000-.628z"/></g><defs><clipPath id="alclip0"><path d="M0 0h11v11H0z"/></clipPath></defs></symbol><symbol viewBox="0 0 7.05 7.05" id="ico-cross" xmlns="http://www.w3.org/2000/svg"><g clip-path="url(#amclip0)"><path d="M6.917.083a.283.283 0 00-.4 0L.083 6.518a.283.283 0 10.4.4L6.917.482c.11-.11.11-.29 0-.4z"/><path d="M6.917 6.518L.483.083a.283.283 0 10-.4.4l6.434 6.434a.282.282 0 00.4 0c.11-.11.11-.29 0-.4z"/></g><defs><clipPath id="amclip0"><path d="M0 0h7v7H0z"/></clipPath></defs></symbol><symbol viewBox="0 0 18.1 13.19" id="ico-email" xmlns="http://www.w3.org/2000/svg"><path d="M12.5 7.83l5.393 5.393H2.107L7.5 7.83l.035-.036L7.5 7.76l-.58-.58-.035-.035-.035.035-4.983 4.982V1.868h16.264v10.294L13.149 7.18l-.035-.035-.035.035-.579.579-.035.035.035.036zM18.59.95H1.41a.459.459 0 00-.46.46v12.272c0 .254.205.459.46.459h17.18a.46.46 0 00.46-.46V1.41a.459.459 0 00-.46-.459z" stroke="#006771" stroke-width=".1"/><path d="M17.355 1.768h-.02l-.015.015L10 9.103l-7.32-7.32-.014-.015h-.898v.401l.015.015 7.893 7.892c.18.18.47.18.649 0l7.892-7.892.015-.015v-.4h-.877z" stroke="#006771" stroke-width=".1"/></symbol><symbol viewBox="0 0 18.1 13.19" id="ico-email-w" xmlns="http://www.w3.org/2000/svg"><path d="M12.5 7.83l5.393 5.393H2.107L7.5 7.83l.035-.036L7.5 7.76l-.58-.58-.035-.035-.035.035-4.983 4.982V1.868h16.264v10.294L13.149 7.18l-.035-.035-.035.035-.579.579-.035.035.035.036zM18.59.95H1.41a.459.459 0 00-.46.46v12.272c0 .254.205.459.46.459h17.18a.46.46 0 00.46-.46V1.41a.459.459 0 00-.46-.459z" stroke="#fff" stroke-width=".1"/><path d="M17.355 1.768h-.02l-.015.015L10 9.103l-7.32-7.32-.014-.015h-.898v.401l.015.015 7.893 7.892c.18.18.47.18.649 0l7.892-7.892.015-.015v-.4h-.877z" stroke="#fff" stroke-width=".1"/></symbol><symbol viewBox="0 0 25.85 23" id="ico-favorite" xmlns="http://www.w3.org/2000/svg"><path d="M12.926 23a1.52 1.52 0 01-1-.375 299.168 299.168 0 00-2.939-2.529l-.005-.004c-2.604-2.22-4.853-4.136-6.418-6.024C.814 11.957 0 9.956 0 7.769c0-2.124.728-4.084 2.05-5.518C3.39.799 5.226 0 7.223 0c1.492 0 2.859.472 4.062 1.402a8.31 8.31 0 011.642 1.715 8.31 8.31 0 011.642-1.715C15.771.472 17.138 0 18.63 0c1.997 0 3.833.8 5.171 2.25 1.323 1.435 2.051 3.395 2.051 5.52 0 2.186-.815 4.187-2.564 6.298-1.565 1.888-3.814 3.804-6.418 6.024-.89.758-1.898 1.617-2.945 2.533a1.517 1.517 0 01-.999.375zM7.222 1.514c-1.569 0-3.01.626-4.058 1.763-1.064 1.154-1.65 2.75-1.65 4.492 0 1.84.684 3.484 2.216 5.333 1.481 1.787 3.684 3.664 6.235 5.838l.004.004c.892.76 1.903 1.621 2.955 2.541a356.4 356.4 0 012.964-2.546c2.55-2.173 4.753-4.05 6.234-5.837 1.532-1.85 2.216-3.494 2.216-5.333 0-1.742-.586-3.338-1.65-4.492a5.454 5.454 0 00-4.058-1.763c-1.149 0-2.204.366-3.135 1.086-.83.642-1.409 1.454-1.748 2.022a.948.948 0 01-.821.466.948.948 0 01-.821-.466c-.339-.568-.917-1.38-1.748-2.022-.931-.72-1.986-1.086-3.135-1.086z"/></symbol><symbol viewBox="0 0 22.48 20.01" id="ico-favorite-green" xmlns="http://www.w3.org/2000/svg"><path d="M11.24 20c-.32 0-.629-.116-.869-.327-.908-.794-1.784-1.54-2.556-2.198l-.004-.004c-2.265-1.93-4.22-3.596-5.581-5.238C.709 10.397 0 8.657 0 6.756c0-1.847.633-3.551 1.783-4.799A6.045 6.045 0 016.28 0c1.298 0 2.486.41 3.532 1.22a7.228 7.228 0 011.428 1.49c.422-.583.9-1.082 1.428-1.49C13.714.41 14.903 0 16.2 0c1.736 0 3.333.695 4.497 1.957 1.15 1.248 1.783 2.952 1.783 4.799 0 1.901-.708 3.641-2.23 5.477-1.36 1.642-3.316 3.308-5.58 5.238-.774.66-1.65 1.407-2.561 2.203a1.32 1.32 0 01-.869.326zM6.28 1.317A4.743 4.743 0 002.751 2.85c-.925 1.003-1.434 2.39-1.434 3.906 0 1.599.594 3.029 1.926 4.637 1.288 1.554 3.204 3.186 5.422 5.076l.004.004c.775.66 1.654 1.41 2.57 2.21.92-.802 1.8-1.552 2.577-2.214 2.217-1.89 4.133-3.522 5.42-5.076 1.333-1.608 1.927-3.038 1.927-4.637 0-1.516-.51-2.903-1.434-3.906A4.742 4.742 0 0016.2 1.317c-.999 0-1.916.317-2.726.944-.722.558-1.225 1.264-1.52 1.758a.825.825 0 01-.714.406.825.825 0 01-.714-.406c-.295-.494-.797-1.2-1.52-1.758a4.367 4.367 0 00-2.726-.944z"/></symbol><symbol viewBox="0 0 22.48 20.01" id="ico-favorite-green-added" xmlns="http://www.w3.org/2000/svg"><path d="M11.24 20c-.32 0-.629-.116-.869-.327-.908-.794-1.784-1.54-2.556-2.198l-.004-.004c-2.265-1.93-4.22-3.596-5.581-5.238C.709 10.397 0 8.657 0 6.756c0-1.847.633-3.551 1.783-4.799A6.045 6.045 0 016.28 0c1.298 0 2.486.41 3.532 1.22a7.228 7.228 0 011.428 1.49c.422-.583.9-1.082 1.428-1.49C13.714.41 14.903 0 16.2 0c1.736 0 3.333.695 4.497 1.957 1.15 1.248 1.783 2.952 1.783 4.799 0 1.901-.708 3.641-2.23 5.477-1.36 1.642-3.316 3.308-5.58 5.238-.774.66-1.65 1.407-2.561 2.203a1.32 1.32 0 01-.869.326zM6.28 1.317A4.743 4.743 0 002.751 2.85c-.925 1.003-1.434 2.39-1.434 3.906 0 1.599.594 3.029 1.926 4.637 1.288 1.554 3.204 3.186 5.422 5.076l.004.004c.775.66 1.654 1.41 2.57 2.21.92-.802 1.8-1.552 2.577-2.214 2.217-1.89 4.133-3.522 5.42-5.076 1.333-1.608 1.927-3.038 1.927-4.637 0-1.516-.51-2.903-1.434-3.906A4.742 4.742 0 0016.2 1.317c-.999 0-1.916.317-2.726.944-.722.558-1.225 1.264-1.52 1.758a.825.825 0 01-.714.406.825.825 0 01-.714-.406c-.295-.494-.797-1.2-1.52-1.758a4.367 4.367 0 00-2.726-.944z"/></symbol><symbol viewBox="0 0 16.06 20" id="ico-flag" xmlns="http://www.w3.org/2000/svg"><mask id="asa"><path d="M11.136 6.279l2.82-4.641a.308.308 0 00.008-.305.291.291 0 00-.256-.154H.583v-.6c0-.166-.13-.3-.291-.3a.296.296 0 00-.292.3v17.4c0 .166.13.3.292.3a.296.296 0 00.291-.3v-6.6h13.125a.29.29 0 00.255-.155.308.308 0 00-.007-.305l-2.82-4.64zm-10.553 4.5v-9h12.599l-2.638 4.34a.307.307 0 000 .319l2.638 4.34H.583z"/></mask><path d="M11.136 6.279l2.82-4.641a.308.308 0 00.008-.305.291.291 0 00-.256-.154H.583v-.6c0-.166-.13-.3-.291-.3a.296.296 0 00-.292.3v17.4c0 .166.13.3.292.3a.296.296 0 00.291-.3v-6.6h13.125a.29.29 0 00.255-.155.308.308 0 00-.007-.305l-2.82-4.64zm-10.553 4.5v-9h12.599l-2.638 4.34a.307.307 0 000 .319l2.638 4.34H.583z"/><path d="M11.136 6.279l-.855-.52a1 1 0 000 1.039l.855-.52zm2.82-4.641l.854.519-.854-.52zm.008-.305l.88-.474-.001-.002-.88.476zM.583 1.18h-1a1 1 0 001 1v-1zm0 10.2v-1a1 1 0 00-1 1h1zm13.38-.155l-.88-.475.88.475zm-.008-.305l.854-.519-.854.52zM.583 10.78h-1a1 1 0 001 1v-1zm0-9v-1a1 1 0 00-1 1h1zm12.599 0l.854.519a1 1 0 00-.854-1.52v1zm-2.638 4.34l.854.52-.854-.52zm0 .319l-.854.519.854-.52zm2.638 4.34v1a1 1 0 00.854-1.519l-.854.52zm-1.192-3.98l2.82-4.641-1.709-1.039-2.82 4.641 1.71 1.039zm2.82-4.641c.241-.397.253-.89.034-1.298l-1.761.948a.692.692 0 01.018-.688l1.71 1.038zm.033-1.3A1.291 1.291 0 0013.708.18v2a.71.71 0 01-.624-.37l1.759-.952zM13.708.18H.583v2h13.125v-2zm-12.125 1v-.6h-2v.6h2zm0-.6c0-.692-.551-1.3-1.291-1.3v2a.704.704 0 01-.709-.7h2zM.292-.721C-.448-.721-1-.113-1 .579h2c0 .36-.291.7-.708.7v-2zM-1 .579v17.4h2V.579h-2zm0 17.4c0 .691.552 1.3 1.292 1.3v-2c.417 0 .708.34.708.7h-2zm1.292 1.3c.74 0 1.291-.609 1.291-1.3h-2c0-.36.291-.7.709-.7v2zm1.291-1.3v-6.6h-2v6.6h2zm-1-5.6h13.125v-2H.583v2zm13.125 0c.484 0 .915-.27 1.136-.68l-1.76-.95a.71.71 0 01.624-.37v2zm1.136-.68c.22-.408.207-.903-.034-1.299l-1.71 1.038a.692.692 0 01-.016-.69l1.76.95zM14.81 10.4l-2.82-4.64-1.709 1.038 2.82 4.64 1.71-1.038zm-13.227.379v-9h-2v9h2zm-1-8h12.599v-2H.583v2zm11.744-1.52L9.69 5.6l1.709 1.039 2.637-4.341-1.709-1.039zM9.69 5.6a1.307 1.307 0 000 1.358l1.709-1.038a.693.693 0 010 .72L9.69 5.6zm0 1.358l2.637 4.34 1.71-1.038-2.638-4.34-1.71 1.038zm3.492 2.822H.583v2h12.599v-2z" mask="url(#asa)"/></symbol><symbol viewBox="0 0 14.84 14.84" id="ico-inst" xmlns="http://www.w3.org/2000/svg"><path d="M11.458.95H5.282A4.337 4.337 0 00.95 5.282v6.176a4.337 4.337 0 004.332 4.332h6.176a4.337 4.337 0 004.332-4.332V5.282A4.337 4.337 0 0011.458.95zm3.08 10.508a3.084 3.084 0 01-3.08 3.08H5.282a3.084 3.084 0 01-3.08-3.08V5.282a3.084 3.084 0 013.08-3.08h6.176a3.084 3.084 0 013.08 3.08v6.176z" stroke="#fff" stroke-width=".1"/><path d="M8.37 4.347A4.027 4.027 0 004.347 8.37a4.027 4.027 0 004.023 4.023 4.027 4.027 0 004.023-4.023A4.027 4.027 0 008.37 4.347zm0 6.794a2.775 2.775 0 01-2.77-2.77 2.775 2.775 0 012.77-2.773 2.775 2.775 0 012.772 2.771A2.775 2.775 0 018.37 11.14zm4.03-6.176a.626.626 0 100-1.251.626.626 0 000 1.251z" stroke="#fff" stroke-width=".1"/></symbol><symbol viewBox="0 0 3 19" id="ico-list" xmlns="http://www.w3.org/2000/svg"><circle cx="1.5" cy="1.5" r="1.5"/><circle cx="1.5" cy="9.5" r="1.5"/><circle cx="1.5" cy="17.5" r="1.5"/><rect x="7.75" y=".75" rx=".75" stroke="#E8EAEE" stroke-width=".5"/><rect x="7.75" y="8.75" rx=".75" stroke="#E8EAEE" stroke-width=".5"/><rect x="7.75" y="16.75" rx=".75" stroke="#E8EAEE" stroke-width=".5"/></symbol><symbol viewBox="0 0 3 19" id="ico-list-active" xmlns="http://www.w3.org/2000/svg"><circle cx="1.5" cy="1.5" r="1.5"/><circle cx="1.5" cy="9.5" r="1.5"/><circle cx="1.5" cy="17.5" r="1.5"/><rect x="7.75" y=".75" rx=".75" stroke="#006771" stroke-width=".5"/><rect x="7.75" y="8.75" rx=".75" stroke="#006771" stroke-width=".5"/><rect x="7.75" y="16.75" rx=".75" stroke="#006771" stroke-width=".5"/></symbol><symbol viewBox="0 0 11.8 16.8" id="ico-loc" xmlns="http://www.w3.org/2000/svg"><path d="M6.5 17.396a24.777 24.777 0 01-3.056-3.484C1.97 11.877.6 9.28.6 6.715.6 3.325 3.265.6 6.5.6c3.235 0 5.9 2.725 5.9 6.115 0 2.565-1.371 5.162-2.844 7.197A24.784 24.784 0 016.5 17.396zM8.906 6.715C8.906 5.369 7.85 4.23 6.5 4.23c-1.351 0-2.406 1.139-2.406 2.485C4.094 8.06 5.15 9.2 6.5 9.2c1.351 0 2.406-1.139 2.406-2.485z" stroke="#fff" stroke-width="1.2"/></symbol><symbol viewBox="0 0 11.8 16.8" id="ico-location" xmlns="http://www.w3.org/2000/svg"><path d="M6.5 17.674a24.787 24.787 0 01-3.056-3.484C1.97 12.156.6 9.56.6 6.994.6 3.604 3.265.879 6.5.879c3.235 0 5.9 2.725 5.9 6.115 0 2.565-1.371 5.162-2.844 7.197A24.784 24.784 0 016.5 17.674zm2.406-10.68c0-1.347-1.055-2.486-2.406-2.486-1.351 0-2.406 1.14-2.406 2.486 0 1.346 1.055 2.485 2.406 2.485 1.351 0 2.406-1.14 2.406-2.485z" stroke="#fff" stroke-width="1.2"/></symbol><symbol viewBox="0 0 11.8 16.8" id="ico-location-green" xmlns="http://www.w3.org/2000/svg"><path d="M6.5 17.396a24.777 24.777 0 01-3.056-3.484C1.97 11.877.6 9.28.6 6.715.6 3.325 3.265.6 6.5.6c3.235 0 5.9 2.725 5.9 6.115 0 2.565-1.371 5.162-2.844 7.197A24.784 24.784 0 016.5 17.396zM8.906 6.715C8.906 5.369 7.85 4.23 6.5 4.23c-1.351 0-2.406 1.139-2.406 2.485C4.094 8.06 5.15 9.2 6.5 9.2c1.351 0 2.406-1.139 2.406-2.485z" stroke="#006771" stroke-width="1.2"/></symbol><symbol viewBox="0 0 59.88 67.73" id="ico-main-advantages-1" xmlns="http://www.w3.org/2000/svg"><path d="M37.752 19.767a.15.15 0 01-.113-.082l-2.585-5.235s0 0 0 0a1.178 1.178 0 00-1.056-.656h0l3.755 5.973zm0 0l5.778.838s0 0 0 0a1.178 1.178 0 01.654 2.01s0 0 0 0l-4.18 4.075a.15.15 0 00-.043.133l.989 5.754c.076.442-.106.889-.469 1.152h0a1.178 1.178 0 01-1.24.09h0l-5.169-2.715a.15.15 0 00-.14 0l-5.166 2.718a1.178 1.178 0 01-1.71-1.241h0l.985-5.755a.15.15 0 00-.043-.133l-4.181-4.074a1.178 1.178 0 01.652-2.01h0l5.777-.84a.15.15 0 00.113-.082m7.393.08l-7.393-.08m0 0l2.582-5.236s0 0 0 0m-2.582 5.236l2.582-5.236m0 0a1.178 1.178 0 011.057-.657l-1.056.657zm5.013 16.031a.15.15 0 00.218-.158l-.651-3.79s0 0 0 0a1.178 1.178 0 01.338-1.043l2.753-2.685a.15.15 0 00-.083-.256l-3.806-.552h0a1.178 1.178 0 01-.887-.644l-1.703-3.448a.15.15 0 00-.269 0l-1.7 3.45s0 0 0 0a1.178 1.178 0 01-.887.644l-3.806.554a.15.15 0 00-.083.256l2.754 2.683c.278.27.405.66.34 1.043h0l-.65 3.79a.15.15 0 00.218.158l3.403-1.79s0 0 0 0c.344-.18.754-.18 1.097 0h0l3.404 1.788z" stroke="#F9FAFA" stroke-width=".3" stroke-linejoin="round"/><path d="M52.753 39.165a.15.15 0 00-.013.169l10.978 19.094a1.178 1.178 0 01-1.178 1.755l-8.568-1.15a.15.15 0 00-.158.091l-3.288 7.996a1.178 1.178 0 01-2.11.14l-11.08-19.19a.15.15 0 00-.156-.086 24.14 24.14 0 01-6.36 0 .15.15 0 00-.15.074l-.005.009v.002L19.584 67.26a1.178 1.178 0 01-2.11-.141l-3.288-7.996a.15.15 0 00-.158-.091l-8.569 1.15.02.15-.02-.15a1.179 1.179 0 01-1.178-1.755L15.26 39.334a.15.15 0 00-.013-.169 23.904 23.904 0 01-5.268-14.993C9.978 10.926 20.754.15 34 .15c13.245 0 24.022 10.776 24.022 24.022 0 5.667-1.974 10.88-5.269 14.993zm-22.09 8.906s0 0 0 0h0zM18.625 63.725a.15.15 0 00.27.018l9.276-16.068a.15.15 0 00-.093-.22 24.02 24.02 0 01-10.974-6.224.15.15 0 00-.236.031l-9.2 16.004a.15.15 0 00.15.223l6.286-.844a.15.15 0 00.107-.07l2.17-3.542-.127-.078.128.078a1.178 1.178 0 012.009 1.232l.128.078-.128-.078-2.148 3.504a.15.15 0 00-.01.136l2.392 5.82zm35.163-7.15a.15.15 0 00.108.07l6.286.844a.15.15 0 00.15-.223l-9.2-16.004a.15.15 0 00-.236-.031 24.02 24.02 0 01-10.975 6.224.15.15 0 00-.093.22l9.277 16.068a.15.15 0 00.269-.018l2.393-5.82a.15.15 0 00-.01-.136l-2.148-3.504a1.178 1.178 0 01.389-1.62l-.079-.128.079.127a1.178 1.178 0 011.62.39l.127-.079-.127.078 2.17 3.542zM12.334 24.172c0 11.947 9.719 21.666 21.666 21.666 11.946 0 21.665-9.72 21.665-21.666 0-11.947-9.719-21.666-21.665-21.666-11.947 0-21.666 9.72-21.666 21.666z" stroke="#F9FAFA" stroke-width=".3" stroke-linejoin="round"/><path d="M25.617 9.246h0A17.124 17.124 0 0134 7.056c9.437 0 17.115 7.679 17.115 17.116a16.96 16.96 0 01-1.662 7.366 1.179 1.179 0 01-2.126-1.015 14.625 14.625 0 001.432-6.351c0-8.139-6.62-14.76-14.76-14.76-2.533 0-5.033.653-7.227 1.888h0a1.178 1.178 0 11-1.155-2.054zm18.971 25.209h0a1.178 1.178 0 011.691 1.64l-.035.036s0 0 0 0a1.174 1.174 0 01-1.666.02 1.178 1.178 0 01-.02-1.666h0l.03-.03zm-1.875 3.117h0c.314.57.106 1.286-.464 1.6A17.135 17.135 0 0134 41.288c-9.437 0-17.116-7.678-17.116-17.116 0-2.472.516-4.856 1.533-7.088a1.178 1.178 0 012.144.977h0a14.64 14.64 0 00-1.32 6.111c0 8.138 6.62 14.76 14.76 14.76 2.487 0 4.947-.63 7.111-1.824l-.072-.131.072.131a1.178 1.178 0 011.6.464zM23.14 12.448h0c.476.443.502 1.189.059 1.665h0l-.023.025h0a1.175 1.175 0 01-1.665.065h0a1.178 1.178 0 01-.065-1.665l.029-.031s0 0 0 0a1.178 1.178 0 011.665-.059z" stroke="#F9FAFA" stroke-width=".3" stroke-linejoin="round"/></symbol><symbol viewBox="0 0 62.9 62.9" id="ico-main-advantages-2" xmlns="http://www.w3.org/2000/svg"><path d="M60.85 18.9c0 .028.022.05.05.05h1.05a1 1 0 011 1v4.2a1 1 0 01-1 1H60.9a.05.05 0 00-.05.05v36.75a1 1 0 01-1 1H3.15a1 1 0 01-1-1V25.2a.05.05 0 00-.05-.05H1.05a1 1 0 01-1-1v-4.2a1 1 0 011-1H2.1a.05.05 0 00.05-.05V7.35a1 1 0 011-1H21a.05.05 0 00.05-.05V1.05a1 1 0 011-1h18.9a1 1 0 011 1V6.3c0 .028.022.05.05.05h17.85a1 1 0 011 1V18.9zM42 8.35a.05.05 0 00-.05.05v10.5c0 .028.022.05.05.05h16.8a.05.05 0 00.05-.05V8.4a.05.05 0 00-.05-.05H42zm-18.9-6.3a.05.05 0 00-.05.05v16.8c0 .028.022.05.05.05h16.8a.05.05 0 00.05-.05V2.1a.05.05 0 00-.05-.05H23.1zM4.2 8.35a.05.05 0 00-.05.05v10.5c0 .028.022.05.05.05H21a.05.05 0 00.05-.05V8.4a.05.05 0 00-.05-.05H4.2zm47.25 52.6a.05.05 0 00.05-.05v-8.4a.05.05 0 00-.05-.05H37.8a.05.05 0 00-.05.05v8.4c0 .028.022.05.05.05h13.65zm0-10.5a.05.05 0 00.05-.05V39.9a.05.05 0 00-.05-.05H37.8a.05.05 0 00-.05.05v10.5c0 .028.022.05.05.05h13.65zm0-12.6a.05.05 0 00.05-.05v-5.25a.05.05 0 00-.05-.05H37.8a.05.05 0 00-.05.05v5.25c0 .028.022.05.05.05h13.65zm7.35 23.1a.05.05 0 00.05-.05V25.2a.05.05 0 00-.05-.05H4.2a.05.05 0 00-.05.05v35.7c0 .028.022.05.05.05h31.5a.05.05 0 00.05-.05V31.5a1 1 0 011-1H52.5a1 1 0 011 1v29.4c0 .028.022.05.05.05h5.25zm2.1-37.8a.05.05 0 00.05-.05V21a.05.05 0 00-.05-.05H2.1a.05.05 0 00-.05.05v2.1c0 .028.022.05.05.05h58.8z" stroke="#F9FAFA" stroke-width=".1" stroke-linejoin="round"/><path d="M28.3 46.2c0 .028.023.05.05.05h1.05a1 1 0 011 1v5.25a1 1 0 01-1 1H10.5a1 1 0 01-1-1v-5.25a1 1 0 011-1h1.05a.05.05 0 00.05-.05V31.5a1 1 0 011-1h14.7a1 1 0 011 1v14.7zM13.65 32.5a.05.05 0 00-.05.05V46.2c0 .028.023.05.05.05h12.6a.05.05 0 00.05-.05V32.55a.05.05 0 00-.05-.05h-12.6zm-2.1 15.75a.05.05 0 00-.05.05v3.15c0 .028.023.05.05.05h16.8a.05.05 0 00.05-.05V48.3a.05.05 0 00-.05-.05h-16.8zm37.75-3.1a1 1 0 01-2 0V44.1a1 1 0 012 0v1.05zM34.6 7.35c0 .028.023.05.05.05h2.1a1 1 0 011 1v4.2a1 1 0 01-1 1h-2.1a.05.05 0 00-.05.05v2.1a1 1 0 01-1 1h-4.2a1 1 0 01-1-1v-2.1a.05.05 0 00-.05-.05h-2.1a1 1 0 01-1-1V8.4a1 1 0 011-1h2.1a.05.05 0 00.05-.05v-2.1a1 1 0 011-1h4.2a1 1 0 011 1v2.1zm1.1 4.25a.05.05 0 00.05-.05v-2.1a.05.05 0 00-.05-.05h-2.1a1 1 0 01-1-1V6.3a.05.05 0 00-.05-.05h-2.1a.05.05 0 00-.05.05v2.1a1 1 0 01-1 1h-2.1a.05.05 0 00-.05.05v2.1c0 .028.023.05.05.05h2.1a1 1 0 011 1v2.1c0 .028.023.05.05.05h2.1a.05.05 0 00.05-.05v-2.1a1 1 0 011-1h2.1z" stroke="#F9FAFA" stroke-width=".1" stroke-linejoin="round"/><path d="M17.507 39.557h0a1 1 0 01-.973.273h0a.998.998 0 01-.714-.714h0a1 1 0 01.273-.972h0v-.001l3.15-3.15a1 1 0 011.414 1.414l-3.15 3.15zm-.365 2.786h0l5.25-5.25a1 1 0 011.415 1.414l-5.25 5.25h0a1 1 0 01-.973.273h0a.998.998 0 01-.714-.714h0a1 1 0 01.272-.973z" stroke="#F9FAFA" stroke-width=".1" stroke-linejoin="round"/></symbol><symbol viewBox="0 0 56.71 63" id="ico-main-advantages-3" xmlns="http://www.w3.org/2000/svg"><path d="M41.044 40.438a1.005 1.005 0 00-1.373-.368l-.96.554.007-.074a1.005 1.005 0 10-2.002-.191l-.142 1.499-4.069 2.349v-4.698l1.227-.873a1.005 1.005 0 00-1.166-1.638l-.06.043v-1.108a1.005 1.005 0 10-2.011 0v1.108l-.061-.043a1.005 1.005 0 10-1.166 1.638l1.227.873v4.698l-4.069-2.35-.143-1.498a1.006 1.006 0 00-2.001.19l.007.075-.96-.554a1.005 1.005 0 10-1.005 1.741l.96.554-.068.03a1.005 1.005 0 10.835 1.83l1.37-.626 4.068 2.349-4.068 2.349-1.37-.626a1.005 1.005 0 10-.835 1.829l.068.03-.96.555a1.005 1.005 0 001.005 1.74l.96-.553-.007.074a1.005 1.005 0 102.002.19l.143-1.498 4.068-2.35v4.698l-1.227.874a1.005 1.005 0 001.166 1.638l.06-.044v1.108a1.005 1.005 0 102.011 0v-1.108l.061.044a1.004 1.004 0 101.166-1.638l-1.227-.874V47.69l4.069 2.349.143 1.499a1.005 1.005 0 102.001-.191l-.007-.074.96.554a1.005 1.005 0 101.005-1.741l-.96-.554.068-.032a1.005 1.005 0 10-.835-1.828l-1.37.626-4.068-2.35 4.068-2.348 1.37.626a1.002 1.002 0 001.332-.497 1.005 1.005 0 00-.497-1.332l-.068-.03.96-.555c.48-.278.645-.892.368-1.373zM8.17 23.71a1.005 1.005 0 100 2.01h46.66a1.005 1.005 0 100-2.01H8.17zM54.83 0H8.17a5.032 5.032 0 00-5.026 5.027v10.48a1.005 1.005 0 102.01 0V5.027A3.02 3.02 0 018.17 2.01h46.66a3.02 3.02 0 013.016 3.016v10.48a1.005 1.005 0 102.011 0V5.027A5.032 5.032 0 0054.83 0z"/><path d="M58.852 18.523h-3.016v-4.17a5.032 5.032 0 00-5.027-5.027H12.191a5.032 5.032 0 00-5.026 5.027v4.17H4.149c-.555 0-1.005.45-1.005 1.005v7.488a3.897 3.897 0 002.927 3.77l1.36 27.242C7.57 60.77 9.914 63 12.659 63h37.685c2.745 0 5.089-2.23 5.226-4.972l1.36-27.242a3.897 3.897 0 002.928-3.77v-7.488c0-.555-.45-1.005-1.005-1.005zm-49.677-4.17a3.02 3.02 0 013.016-3.016H50.81a3.02 3.02 0 013.016 3.016v4.17H9.175v-4.17zm44.386 43.575c-.085 1.688-1.528 3.061-3.218 3.061H12.658c-1.69 0-3.134-1.373-3.218-3.06L8.09 30.905h46.82l-1.35 27.022zm4.285-30.912c0 1.037-.843 1.88-1.88 1.88H7.035a1.882 1.882 0 01-1.88-1.88v-6.483h52.692v6.483z"/></symbol><symbol viewBox="0 0 50.07 67.6" id="ico-main-advantages-4" xmlns="http://www.w3.org/2000/svg"><path d="M22.247 44.625a1.129 1.129 0 112.257 0 1.129 1.129 0 01-2.257 0z" stroke="#F9FAFA" stroke-width=".4" stroke-linejoin="round"/><path d="M40.311 5.352a.2.2 0 00.196.16H55.25a3.789 3.789 0 013.784 3.785v54.719A3.789 3.789 0 0155.25 67.8h-42.5a3.789 3.789 0 01-3.784-3.784V9.296a3.789 3.789 0 013.784-3.783h14.743a.2.2 0 00.196-.16C28.287 2.415 30.89.2 34 .2s5.713 2.216 6.311 5.152zM24.703 7.77a.2.2 0 00-.2.2v2.656c0 .11.09.2.2.2h18.594a.2.2 0 00.2-.2V7.969a.2.2 0 00-.2-.2h-3.984a1.128 1.128 0 01-1.129-1.128A4.189 4.189 0 0034 2.456a4.189 4.189 0 00-4.184 4.185c0 .623-.506 1.128-1.128 1.128h-3.985zm26.763 5.512a.2.2 0 00-.2-.2H16.734a.2.2 0 00-.2.2v46.75c0 .11.09.2.2.2h34.532a.2.2 0 00.2-.2v-46.75zM22.246 7.97a.2.2 0 00-.2-.2H12.75a1.53 1.53 0 00-1.528 1.528v54.719a1.53 1.53 0 001.528 1.528h42.5a1.53 1.53 0 001.528-1.528V9.296A1.53 1.53 0 0055.25 7.77h-9.297a.2.2 0 00-.2.2v2.656c0 .11.09.2.2.2h6.64c.624 0 1.129.505 1.129 1.128V61.36c0 .623-.505 1.128-1.128 1.128H15.406a1.128 1.128 0 01-1.128-1.128V11.953c0-.623.505-1.128 1.128-1.128h6.64a.2.2 0 00.2-.2V7.969z" stroke="#F9FAFA" stroke-width=".4" stroke-linejoin="round"/><path d="M23.375 51.466h21.25a1.128 1.128 0 010 2.256h-21.25a1.128 1.128 0 010-2.256zm5.313-7.969h15.937a1.128 1.128 0 010 2.256H28.687a1.128 1.128 0 010-2.256zm-3.785-14.809c0-5.016 4.081-9.097 9.097-9.097 5.016 0 9.097 4.08 9.097 9.096S39.016 37.785 34 37.785c-5.016 0-9.097-4.08-9.097-9.096zm2.256 0A6.848 6.848 0 0034 35.528a6.848 6.848 0 006.84-6.84A6.848 6.848 0 0034 21.846a6.848 6.848 0 00-6.84 6.84z" stroke="#F9FAFA" stroke-width=".4" stroke-linejoin="round"/><path d="M35.128 27.36c0 .11.09.2.2.2h1.328a1.128 1.128 0 010 2.256h-1.328a.2.2 0 00-.2.2v1.328a1.128 1.128 0 01-2.256 0v-1.328a.2.2 0 00-.2-.2h-1.328a1.128 1.128 0 010-2.257h1.328a.2.2 0 00.2-.2v-1.328a1.128 1.128 0 012.256 0v1.328z" stroke="#F9FAFA" stroke-width=".4" stroke-linejoin="round"/></symbol><symbol viewBox="0 0 44.76 68.07" id="ico-main-advantages-5" xmlns="http://www.w3.org/2000/svg"><mask id="bda"><path fill-rule="evenodd" clip-rule="evenodd" d="M56.318 13.302l-.002-.044a1.32 1.32 0 00-.067-.336l-.015-.04a1.436 1.436 0 00-.066-.151l-.004-.008c-.027-.05-.058-.1-.092-.146l-.026-.036a1.34 1.34 0 00-.115-.133L43.913.389a1.336 1.336 0 00-.134-.115l-.036-.027a1.26 1.26 0 00-.145-.09l-.01-.006a1.39 1.39 0 00-.355-.126h-.002a1.406 1.406 0 00-.169-.02L43.02.001 42.974 0H12.883c-.734 0-1.328.595-1.328 1.328v56.847c0 .733.594 1.328 1.328 1.328h19.995v7.169a1.328 1.328 0 002.035 1.125l5.058-3.173 5.058 3.173a1.33 1.33 0 002.034-1.125v-7.169h7.929c.733 0 1.328-.595 1.328-1.328V13.347l-.002-.045zM44.302 4.535l7.483 7.483h-7.483V4.535zM32.223 41.022c-.093-.254-.245-.668-.249-.838.104-.129.464-.356.684-.495.474-.3 1.01-.639 1.399-1.169.393-.536.552-1.155.694-1.7.061-.239.161-.624.246-.77a1.65 1.65 0 01.329-.024c.148 0 .313.008.489.017.201.01.409.02.625.02.479 0 .865-.054 1.215-.17.611-.204 1.1-.598 1.532-.945.24-.192.639-.514.778-.534.152.02.55.342.79.534.43.347.92.741 1.532.944.35.117.736.171 1.215.171.216 0 .424-.01.625-.02.175-.009.34-.017.49-.017.183 0 .28.013.328.024.085.146.185.531.246.77.141.545.301 1.164.694 1.7.389.53.925.87 1.399 1.168.22.14.58.367.684.496-.004.17-.156.584-.249.838-.198.538-.421 1.148-.421 1.824 0 .676.223 1.286.42 1.825.094.253.246.668.25.837-.104.13-.464.356-.684.496-.474.299-1.01.638-1.399 1.168-.393.536-.553 1.155-.694 1.7-.061.239-.161.625-.246.77a1.66 1.66 0 01-.329.025c-.148 0-.314-.009-.49-.017-.2-.01-.408-.02-.624-.02-.48 0-.865.053-1.215.17-.611.203-1.101.598-1.533.945-.235.19-.627.504-.783.533-.156-.029-.548-.343-.783-.533-.432-.347-.922-.742-1.533-.945-.35-.117-.736-.17-1.215-.17-.216 0-.424.01-.625.02-.175.008-.34.017-.489.017a1.66 1.66 0 01-.329-.024c-.085-.146-.185-.532-.246-.77-.14-.546-.301-1.165-.694-1.7-.389-.531-.925-.87-1.399-1.17-.22-.138-.58-.366-.683-.495.003-.169.155-.584.248-.837.198-.538.421-1.148.421-1.825 0-.676-.224-1.286-.42-1.824zM44.407 64.27l-3.73-2.34c-.432-.27-.98-.27-1.412 0l-3.73 2.34V52.319l.414-.016a9.63 9.63 0 01.491-.018c.236 0 .337.022.376.035.158.053.462.297.706.494.62.5 1.392 1.12 2.449 1.12s1.829-.62 2.449-1.12c.244-.197.548-.441.706-.494.039-.013.14-.035.375-.035.15 0 .316.009.492.018.134.006.273.012.413.016l.001 11.952zm2.656-7.424v-5.599c.395-.536.56-1.171.7-1.71.073-.284.173-.671.264-.795.091-.125.429-.338.675-.494.654-.413 1.467-.927 1.79-1.9.32-.958-.012-1.865-.28-2.593-.121-.33-.259-.706-.259-.91 0-.204.138-.579.26-.91.267-.728.6-1.635.28-2.594-.324-.972-1.137-1.486-1.79-1.899-.247-.155-.585-.37-.676-.493-.091-.124-.191-.512-.264-.795-.191-.74-.429-1.66-1.242-2.256-.648-.474-1.398-.53-1.905-.53-.215 0-.423.011-.623.021-.176.01-.342.017-.491.017-.236 0-.337-.021-.376-.034-.158-.053-.462-.298-.706-.495-.62-.498-1.392-1.12-2.45-1.12-1.056 0-1.828.622-2.448 1.12-.244.197-.548.442-.706.495-.039.013-.14.035-.376.035-.149 0-.316-.009-.491-.018-.2-.01-.408-.02-.623-.02-.507 0-1.257.055-1.904.529-.814.596-1.052 1.517-1.243 2.256-.073.283-.173.67-.264.795-.091.124-.43.338-.676.493-.653.413-1.466.927-1.79 1.899-.32.96.013 1.866.28 2.595.122.33.26.705.26.909 0 .204-.138.58-.26.91-.267.728-.6 1.635-.28 2.594.324.972 1.137 1.486 1.79 1.9.247.155.585.369.676.493.09.124.19.511.264.794.14.54.305 1.175.7 1.711v5.599H14.21V2.657h27.434v10.69c0 .733.595 1.328 1.329 1.328h10.69v42.172h-6.6z"/></mask><path fill-rule="evenodd" clip-rule="evenodd" d="M56.318 13.302l-.002-.044a1.32 1.32 0 00-.067-.336l-.015-.04a1.436 1.436 0 00-.066-.151l-.004-.008c-.027-.05-.058-.1-.092-.146l-.026-.036a1.34 1.34 0 00-.115-.133L43.913.389a1.336 1.336 0 00-.134-.115l-.036-.027a1.26 1.26 0 00-.145-.09l-.01-.006a1.39 1.39 0 00-.355-.126h-.002a1.406 1.406 0 00-.169-.02L43.02.001 42.974 0H12.883c-.734 0-1.328.595-1.328 1.328v56.847c0 .733.594 1.328 1.328 1.328h19.995v7.169a1.328 1.328 0 002.035 1.125l5.058-3.173 5.058 3.173a1.33 1.33 0 002.034-1.125v-7.169h7.929c.733 0 1.328-.595 1.328-1.328V13.347l-.002-.045zM44.302 4.535l7.483 7.483h-7.483V4.535zM32.223 41.022c-.093-.254-.245-.668-.249-.838.104-.129.464-.356.684-.495.474-.3 1.01-.639 1.399-1.169.393-.536.552-1.155.694-1.7.061-.239.161-.624.246-.77a1.65 1.65 0 01.329-.024c.148 0 .313.008.489.017.201.01.409.02.625.02.479 0 .865-.054 1.215-.17.611-.204 1.1-.598 1.532-.945.24-.192.639-.514.778-.534.152.02.55.342.79.534.43.347.92.741 1.532.944.35.117.736.171 1.215.171.216 0 .424-.01.625-.02.175-.009.34-.017.49-.017.183 0 .28.013.328.024.085.146.185.531.246.77.141.545.301 1.164.694 1.7.389.53.925.87 1.399 1.168.22.14.58.367.684.496-.004.17-.156.584-.249.838-.198.538-.421 1.148-.421 1.824 0 .676.223 1.286.42 1.825.094.253.246.668.25.837-.104.13-.464.356-.684.496-.474.299-1.01.638-1.399 1.168-.393.536-.553 1.155-.694 1.7-.061.239-.161.625-.246.77a1.66 1.66 0 01-.329.025c-.148 0-.314-.009-.49-.017-.2-.01-.408-.02-.624-.02-.48 0-.865.053-1.215.17-.611.203-1.101.598-1.533.945-.235.19-.627.504-.783.533-.156-.029-.548-.343-.783-.533-.432-.347-.922-.742-1.533-.945-.35-.117-.736-.17-1.215-.17-.216 0-.424.01-.625.02-.175.008-.34.017-.489.017a1.66 1.66 0 01-.329-.024c-.085-.146-.185-.532-.246-.77-.14-.546-.301-1.165-.694-1.7-.389-.531-.925-.87-1.399-1.17-.22-.138-.58-.366-.683-.495.003-.169.155-.584.248-.837.198-.538.421-1.148.421-1.825 0-.676-.224-1.286-.42-1.824zM44.407 64.27l-3.73-2.34c-.432-.27-.98-.27-1.412 0l-3.73 2.34V52.319l.414-.016a9.63 9.63 0 01.491-.018c.236 0 .337.022.376.035.158.053.462.297.706.494.62.5 1.392 1.12 2.449 1.12s1.829-.62 2.449-1.12c.244-.197.548-.441.706-.494.039-.013.14-.035.375-.035.15 0 .316.009.492.018.134.006.273.012.413.016l.001 11.952zm2.656-7.424v-5.599c.395-.536.56-1.171.7-1.71.073-.284.173-.671.264-.795.091-.125.429-.338.675-.494.654-.413 1.467-.927 1.79-1.9.32-.958-.012-1.865-.28-2.593-.121-.33-.259-.706-.259-.91 0-.204.138-.579.26-.91.267-.728.6-1.635.28-2.594-.324-.972-1.137-1.486-1.79-1.899-.247-.155-.585-.37-.676-.493-.091-.124-.191-.512-.264-.795-.191-.74-.429-1.66-1.242-2.256-.648-.474-1.398-.53-1.905-.53-.215 0-.423.011-.623.021-.176.01-.342.017-.491.017-.236 0-.337-.021-.376-.034-.158-.053-.462-.298-.706-.495-.62-.498-1.392-1.12-2.45-1.12-1.056 0-1.828.622-2.448 1.12-.244.197-.548.442-.706.495-.039.013-.14.035-.376.035-.149 0-.316-.009-.491-.018-.2-.01-.408-.02-.623-.02-.507 0-1.257.055-1.904.529-.814.596-1.052 1.517-1.243 2.256-.073.283-.173.67-.264.795-.091.124-.43.338-.676.493-.653.413-1.466.927-1.79 1.899-.32.96.013 1.866.28 2.595.122.33.26.705.26.909 0 .204-.138.58-.26.91-.267.728-.6 1.635-.28 2.594.324.972 1.137 1.486 1.79 1.9.247.155.585.369.676.493.09.124.19.511.264.794.14.54.305 1.175.7 1.711v5.599H14.21V2.657h27.434v10.69c0 .733.595 1.328 1.329 1.328h10.69v42.172h-6.6z" stroke="#F9FAFA" stroke-width=".6" stroke-linejoin="round" mask="url(#bda)"/><path d="M36.483 14.525h-17.11a1.178 1.178 0 010-2.356h17.11a1.178 1.178 0 010 2.356zm-17.111 4.347H48.65a1.178 1.178 0 110 2.357H19.372a1.178 1.178 0 110-2.357zm0 6.704h23.965a1.178 1.178 0 010 2.357H19.372a1.178 1.178 0 110-2.357zm28.1 1.178c0-.648.53-1.178 1.178-1.178.65 0 1.178.53 1.178 1.178a1.18 1.18 0 01-1.178 1.178 1.18 1.18 0 01-1.178-1.178z" stroke="#F9FAFA" stroke-width=".3" stroke-linejoin="round"/></symbol><symbol viewBox="0 0 30 28.92" id="ico-map" xmlns="http://www.w3.org/2000/svg"><path d="M29.731.635a.555.555 0 00-.546-.015L20 5.483 10.816.62c-.008-.004-.016-.005-.023-.008a.558.558 0 00-.082-.03l-.046-.014a.579.579 0 00-.093-.01h-.043a.536.536 0 00-.088.013l-.05.01-.011.003-10 3.333a.555.555 0 00-.38.527v23.89a.556.556 0 00.731.526l9.803-3.268 9.254 3.81c.008.004.017.003.025.006a.562.562 0 00.187.036c.05 0 .1-.008.148-.021l.045-.017c.023-.009.046-.015.067-.026l9.444-5a.556.556 0 00.296-.491V1.11a.556.556 0 00-.269-.476zm-28.62 4.21L10 1.882v14.996a9.218 9.218 0 00-.702.152.555.555 0 10.285 1.074c.133-.035.279-.053.417-.082V24.6l-8.889 2.962V4.845zm10 13.022c.178-.014.351-.037.534-.04a.556.556 0 00-.012-1.112h-.012a10.89 10.89 0 00-.51.025V2.034l8.333 4.412V18.22a8.298 8.298 0 01-1.222-.146.556.556 0 00-.211 1.09c.492.097.97.143 1.434.162v8.733l-8.334-3.431v-6.761zm17.778 5.687l-8.333 4.412v-8.7a.552.552 0 00.326-.545.552.552 0 00-.326-.456V6.445l8.333-4.411v21.52z"/><path d="M6.11 5a2.78 2.78 0 00-2.777 2.778c0 1.341.956 2.463 2.222 2.721v1.168a.555.555 0 101.111 0v-1.168A2.782 2.782 0 008.89 7.778 2.78 2.78 0 006.11 5zm0 4.444a1.669 1.669 0 01-1.666-1.666c0-.92.748-1.667 1.667-1.667s1.666.748 1.666 1.667-.747 1.666-1.666 1.666zm18.93 5.93a.556.556 0 00.72-.316c.26-.666.47-1.418.623-2.235a.556.556 0 00-.444-.649.56.56 0 00-.648.445c-.14.749-.33 1.433-.566 2.035a.556.556 0 00.314.72zM7.114 17.968a7.71 7.71 0 00-1.798 1.566.556.556 0 00.85.716 6.574 6.574 0 011.538-1.34.556.556 0 00-.59-.942zm-2.321 3.296a.556.556 0 00-.738.272c-.57 1.237-.71 2.235-.717 2.277a.554.554 0 00.551.63c.273 0 .51-.2.55-.478.001-.008.129-.887.625-1.963a.556.556 0 00-.271-.738zm17.664-2.526c.085 0 .172-.02.252-.06a5.789 5.789 0 001.88-1.548.555.555 0 10-.866-.696 4.675 4.675 0 01-1.52 1.254.555.555 0 00.254 1.05zm-6.252-1.276a6.93 6.93 0 01-.398-.179.554.554 0 00-.114-.043 18.091 18.091 0 00-1.762-.363.555.555 0 10-.168 1.098c.514.079 1.052.189 1.598.328.075.035.217.103.416.185a.555.555 0 10.428-1.026zm9.863-6.389h.036c.29 0 .535-.225.554-.52a26.256 26.256 0 00.046-2.265c-.006-.307-.272-.54-.566-.546a.556.556 0 00-.545.566 25.231 25.231 0 01-.044 2.175c-.02.306.213.57.519.59zM4.607 15.948a.554.554 0 00.786 0l.718-.718.718.718a.554.554 0 00.786 0 .555.555 0 000-.785l-.718-.719.718-.718a.555.555 0 10-.786-.786l-.718.719-.718-.719a.555.555 0 10-.786.786l.719.718-.719.719a.555.555 0 000 .785z"/></symbol><symbol viewBox="0 0 4.23 8.47" id="ico-paginator-arrow" xmlns="http://www.w3.org/2000/svg"><path d="M.75 4.984L4.984.75m0 8.469L.75 4.984" stroke="#b9bac5" stroke-width="1.5" stroke-linecap="round" stroke-linejoin="round" stroke-miterlimit="10"/></symbol><symbol viewBox="0 0 14.2 18.2" id="ico-pdf-green" xmlns="http://www.w3.org/2000/svg"><path d="M10.09 4.977v-2.53l3.374 3.188h-2.672c-.392 0-.702-.3-.702-.658zm-.14-3.945l-.069.072.069-.072A.488.488 0 009.614.9h-7.06C1.649.9.9 1.599.9 2.47v15.06c0 .871.748 1.57 1.655 1.57h10.89c.907 0 1.655-.699 1.655-1.57V6.091a.446.446 0 00-.141-.324l-5.01-4.735zm4.198 16.498c0 .358-.31.659-.702.659H2.555c-.393 0-.702-.301-.702-.659V2.47c0-.358.31-.659.702-.659h6.583v3.166c0 .871.747 1.57 1.654 1.57h3.355V17.53z" stroke="#006771" stroke-width=".2"/><path d="M11.012 9.936H4.99a.466.466 0 00-.476.455c0 .257.218.456.476.456h6.022a.466.466 0 00.476-.456.466.466 0 00-.476-.455zm-.122 3.28H4.87a.466.466 0 00-.477.455c0 .257.219.456.477.456h6.021a.466.466 0 00.477-.456.466.466 0 00-.477-.455z" stroke="#006771" stroke-width=".2"/></symbol><symbol viewBox="0 0 14.2 18.2" id="ico-pdf-w" xmlns="http://www.w3.org/2000/svg"><path d="M10.09 4.977v-2.53l3.374 3.188h-2.672c-.392 0-.702-.3-.702-.658zm4.869.79l-5.01-4.735A.488.488 0 009.614.9h-7.06C1.649.9.9 1.599.9 2.47v15.06c0 .871.748 1.57 1.655 1.57h10.89c.907 0 1.655-.699 1.655-1.57V6.091a.446.446 0 00-.141-.324zm-.812 11.764c0 .357-.31.658-.702.658H2.555c-.393 0-.702-.301-.702-.659V2.47c0-.358.31-.659.702-.659h6.583v3.166c0 .871.747 1.57 1.654 1.57h3.355V17.53z" stroke="#fff" stroke-width=".2"/><path d="M11.012 9.936H4.99a.466.466 0 00-.476.455c0 .257.218.456.476.456h6.022a.466.466 0 00.476-.456.466.466 0 00-.476-.455zm-.122 3.28H4.87a.466.466 0 00-.477.455c0 .257.219.456.477.456h6.021a.466.466 0 00.477-.456.466.466 0 00-.477-.455z" stroke="#fff" stroke-width=".2"/></symbol><symbol viewBox="0 0 15.38 14.24" id="ico-percent" xmlns="http://www.w3.org/2000/svg"><path d="M4 8.52c-.973 0-1.76-.353-2.36-1.06-.6-.707-.9-1.627-.9-2.76 0-1.133.3-2.053.9-2.76C2.24 1.233 3.027.88 4 .88c.974 0 1.754.353 2.34 1.06.6.693.9 1.613.9 2.76 0 1.147-.3 2.073-.9 2.78-.586.693-1.366 1.04-2.34 1.04zM12.44 1h1.54L4.42 15H2.88l9.56-14zM4 7.38c.614 0 1.094-.233 1.44-.7.347-.48.52-1.14.52-1.98 0-.84-.173-1.493-.52-1.96-.346-.48-.826-.72-1.44-.72-.6 0-1.08.24-1.44.72-.346.48-.52 1.133-.52 1.96s.174 1.48.52 1.96c.36.48.84.72 1.44.72zm8.86 7.74c-.973 0-1.76-.347-2.36-1.04-.586-.707-.88-1.633-.88-2.78 0-1.147.294-2.067.88-2.76.6-.707 1.387-1.06 2.36-1.06.974 0 1.76.353 2.36 1.06.6.707.9 1.627.9 2.76 0 1.133-.3 2.053-.9 2.76-.6.707-1.386 1.06-2.36 1.06zm0-1.14c.6 0 1.074-.24 1.42-.72.36-.48.54-1.133.54-1.96s-.18-1.48-.54-1.96c-.346-.48-.82-.72-1.42-.72-.613 0-1.093.24-1.44.72-.346.467-.52 1.12-.52 1.96 0 .84.174 1.5.52 1.98.347.467.827.7 1.44.7z"/></symbol><symbol viewBox="0 0 18.23 18.04" id="ico-phone" xmlns="http://www.w3.org/2000/svg"><g clip-path="url(#bjclip0)"><path d="M14.467 18c-.749 0-1.654-.188-2.648-.563-2.181-.822-4.554-2.447-6.681-4.575C3.01 10.734 1.385 8.361.562 6.18c-.748-1.983-.75-3.61-.004-4.355.107-.107.216-.222.329-.34C1.567.768 2.335-.036 3.353 0c.702.03 1.382.465 2.078 1.332 2.057 2.558 1.13 3.47.056 4.527l-.19.188c-.175.175-.507.988 2.58 4.075 1.007 1.007 1.866 1.745 2.553 2.19.432.282 1.205.707 1.523.39l.19-.193c1.056-1.071 1.968-1.995 4.525.06.866.696 1.301 1.375 1.33 2.078.042 1.018-.769 1.788-1.484 2.467-.118.113-.233.222-.34.329-.37.37-.962.556-1.707.556zM3.28.605c-.723 0-1.376.688-1.955 1.297-.116.122-.228.24-.34.351-.554.555-.498 2.012.144 3.714.793 2.102 2.369 4.4 4.437 6.468 2.069 2.067 4.364 3.643 6.467 4.436 1.702.643 3.16.697 3.713.143.11-.11.23-.223.352-.339.622-.59 1.327-1.26 1.296-2.003-.021-.51-.393-1.06-1.105-1.632-2.13-1.713-2.726-1.108-3.714-.106l-.194.195c-.472.473-1.24.368-2.28-.309-.723-.47-1.615-1.233-2.652-2.27C4.888 7.989 4.07 6.42 4.87 5.618l.193-.191c1.005-.988 1.61-1.584-.103-3.716C4.386 1 3.838.628 3.328.606H3.28z"/></g><defs><clipPath id="bjclip0"><path d="M0 0h18v18H0z"/></clipPath></defs></symbol><symbol viewBox="0 0 18.19 18" id="ico-phone-green" xmlns="http://www.w3.org/2000/svg"><path stroke="6771" d="M3.668 11.965a19.096 19.096 0 006.351 4.976c.93.44 2.171.962 3.555 1.052.086.003.168.007.254.007.928 0 1.674-.32 2.282-.98.004-.005.011-.012.015-.02.216-.26.463-.496.72-.745.175-.168.354-.344.526-.523.794-.828.794-1.88-.008-2.681l-2.241-2.242c-.38-.395-.836-.604-1.313-.604-.478 0-.936.209-1.328.6l-1.335 1.335a7.795 7.795 0 00-.37-.194 4.622 4.622 0 01-.41-.223c-1.216-.772-2.32-1.78-3.375-3.074-.534-.675-.892-1.242-1.142-1.82.351-.317.68-.649.996-.973.112-.116.228-.231.343-.347.403-.403.62-.87.62-1.343 0-.474-.213-.94-.62-1.343L6.077 1.712c-.13-.13-.254-.257-.38-.388a20.455 20.455 0 00-.758-.75C4.555.198 4.104 0 3.627 0c-.474 0-.93.198-1.328.578L.904 1.973A2.866 2.866 0 00.05 3.808c-.071.892.093 1.839.518 2.984.653 1.772 1.637 3.417 3.1 5.173zM.96 3.886a1.97 1.97 0 01.593-1.268L2.94 1.231c.217-.209.455-.317.687-.317.227 0 .458.108.67.324.25.232.486.474.74.731.126.13.257.261.387.396l1.112 1.111c.231.231.35.466.35.698 0 .23-.119.466-.35.697-.116.116-.231.235-.347.35-.347.351-.671.683-1.03 1l-.018.019c-.31.31-.261.604-.187.828l.011.03c.288.69.687 1.346 1.31 2.13 1.119 1.38 2.297 2.45 3.595 3.274.16.105.332.187.493.269.149.074.287.145.41.224.015.007.026.014.04.022a.78.78 0 00.363.093c.298 0 .492-.19.555-.253l1.395-1.395c.217-.217.452-.332.683-.332.283 0 .515.175.66.332l2.25 2.245c.447.448.443.932-.012 1.406-.157.168-.32.328-.496.496-.261.254-.533.515-.78.81-.429.462-.94.678-1.6.678-.063 0-.13-.003-.194-.007-1.223-.078-2.36-.556-3.215-.962a18.14 18.14 0 01-6.046-4.737C2.985 9.716 2.05 8.157 1.43 6.486 1.045 5.46.9 4.636.96 3.886z"/></symbol><symbol viewBox="0 0 18.19 18" id="ico-phone-w" xmlns="http://www.w3.org/2000/svg"><path d="M3.668 11.965a19.096 19.096 0 006.351 4.976c.93.44 2.171.962 3.555 1.052.086.003.168.007.254.007.928 0 1.674-.32 2.282-.98.004-.005.011-.012.015-.02.216-.26.463-.496.72-.745.175-.168.354-.344.526-.523.794-.828.794-1.88-.008-2.681l-2.241-2.242c-.38-.395-.836-.604-1.313-.604-.478 0-.936.209-1.328.6l-1.335 1.335a7.795 7.795 0 00-.37-.194 4.622 4.622 0 01-.41-.223c-1.216-.772-2.32-1.78-3.375-3.074-.534-.675-.892-1.242-1.142-1.82.351-.317.68-.649.996-.973.112-.116.228-.231.343-.347.403-.403.62-.87.62-1.343 0-.474-.213-.94-.62-1.343L6.077 1.712c-.13-.13-.254-.257-.38-.388a20.455 20.455 0 00-.758-.75C4.555.198 4.104 0 3.627 0c-.474 0-.93.198-1.328.578L.904 1.973A2.866 2.866 0 00.05 3.808c-.071.892.093 1.839.518 2.984.653 1.772 1.637 3.417 3.1 5.173zM.96 3.886a1.97 1.97 0 01.593-1.268L2.94 1.231c.217-.209.455-.317.687-.317.227 0 .458.108.67.324.25.232.486.474.74.731.126.13.257.261.387.396l1.112 1.111c.231.231.35.466.35.698 0 .23-.119.466-.35.697-.116.116-.231.235-.347.35-.347.351-.671.683-1.03 1l-.018.019c-.31.31-.261.604-.187.828l.011.03c.288.69.687 1.346 1.31 2.13 1.119 1.38 2.297 2.45 3.595 3.274.16.105.332.187.493.269.149.074.287.145.41.224.015.007.026.014.04.022a.78.78 0 00.363.093c.298 0 .492-.19.555-.253l1.395-1.395c.217-.217.452-.332.683-.332.283 0 .515.175.66.332l2.25 2.245c.447.448.443.932-.012 1.406-.157.168-.32.328-.496.496-.261.254-.533.515-.78.81-.429.462-.94.678-1.6.678-.063 0-.13-.003-.194-.007-1.223-.078-2.36-.556-3.215-.962a18.14 18.14 0 01-6.046-4.737C2.985 9.716 2.05 8.157 1.43 6.486 1.045 5.46.9 4.636.96 3.886z"/></symbol><symbol viewBox="0 0 19 19" id="ico-plates" xmlns="http://www.w3.org/2000/svg"><circle cx="1.5" cy="1.5" r="1.5"/><circle cx="9.5" cy="1.5" r="1.5"/><circle cx="17.5" cy="1.5" r="1.5"/><circle cx="1.5" cy="9.5" r="1.5"/><circle cx="9.5" cy="9.5" r="1.5"/><circle cx="17.5" cy="9.5" r="1.5"/><circle cx="1.5" cy="17.5" r="1.5"/><circle cx="9.5" cy="17.5" r="1.5"/><circle cx="17.5" cy="17.5" r="1.5"/></symbol><symbol viewBox="0 0 19 19" id="ico-plates-active" xmlns="http://www.w3.org/2000/svg"><circle cx="1.5" cy="1.5" r="1.5"/><circle cx="9.5" cy="1.5" r="1.5"/><circle cx="17.5" cy="1.5" r="1.5"/><circle cx="1.5" cy="9.5" r="1.5"/><circle cx="9.5" cy="9.5" r="1.5"/><circle cx="17.5" cy="9.5" r="1.5"/><circle cx="1.5" cy="17.5" r="1.5"/><circle cx="9.5" cy="17.5" r="1.5"/><circle cx="17.5" cy="17.5" r="1.5"/></symbol><symbol viewBox="0 0 18 19" id="ico-print" xmlns="http://www.w3.org/2000/svg"><path d="M15.201 3.895h-.486V2.808A2.807 2.807 0 0011.916 0H6.041a2.807 2.807 0 00-2.799 2.808v1.087h-.443A2.807 2.807 0 000 6.702v4.529a2.807 2.807 0 002.799 2.807h.44v3.56c0 .772.627 1.402 1.396 1.402h8.679c.769 0 1.397-.63 1.397-1.402v-3.56h.49A2.807 2.807 0 0018 11.231V6.702a2.807 2.807 0 00-2.799-2.807zM4.298 2.808c0-.961.78-1.745 1.739-1.745h5.871c.958 0 1.74.784 1.74 1.745v1.087h-9.35V2.808zm9.353 14.798a.34.34 0 01-.337.339H4.635a.34.34 0 01-.337-.339v-5.871h9.353v5.871zm3.29-6.371c0 .96-.782 1.744-1.74 1.744h-.486v-1.244h.698c.295 0 .53-.237.53-.532a.529.529 0 00-.53-.531H2.461a.529.529 0 00-.53.531.53.53 0 00.53.532h.781v1.244h-.443a1.745 1.745 0 01-1.74-1.744V6.706c0-.96.782-1.744 1.74-1.744H15.2c.958 0 1.74.783 1.74 1.744v4.529z"/><path d="M5.582 14.35h6.747a.53.53 0 00.53-.532.529.529 0 00-.53-.532H5.582a.531.531 0 000 1.063zm6.79 1.11H5.62a.528.528 0 00-.53.532c0 .295.235.531.53.531h6.747c.294 0 .53-.236.53-.531a.528.528 0 00-.526-.532z"/></symbol><symbol viewBox="0 0 18 19" id="ico-print-w" xmlns="http://www.w3.org/2000/svg"><path d="M15.201 3.895h-.486V2.808A2.807 2.807 0 0011.916 0H6.041a2.807 2.807 0 00-2.799 2.808v1.087h-.443A2.807 2.807 0 000 6.702v4.529a2.807 2.807 0 002.799 2.807h.44v3.56c0 .772.627 1.402 1.396 1.402h8.679c.769 0 1.397-.63 1.397-1.402v-3.56h.49A2.807 2.807 0 0018 11.231V6.702a2.807 2.807 0 00-2.799-2.807zM4.298 2.808c0-.961.78-1.745 1.739-1.745h5.871c.958 0 1.74.784 1.74 1.745v1.087h-9.35V2.808zm9.353 14.798a.34.34 0 01-.337.339H4.635a.34.34 0 01-.337-.339v-5.871h9.353v5.871zm3.29-6.371c0 .96-.782 1.744-1.74 1.744h-.486v-1.244h.698c.295 0 .53-.237.53-.532a.529.529 0 00-.53-.531H2.461a.529.529 0 00-.53.531.53.53 0 00.53.532h.781v1.244h-.443a1.745 1.745 0 01-1.74-1.744V6.706c0-.96.782-1.744 1.74-1.744H15.2c.958 0 1.74.783 1.74 1.744v4.529z"/><path d="M5.582 14.35h6.747a.53.53 0 00.53-.532.529.529 0 00-.53-.532H5.582a.531.531 0 000 1.063zm6.79 1.11H5.62a.528.528 0 00-.53.532c0 .295.235.531.53.531h6.747c.294 0 .53-.236.53-.531a.528.528 0 00-.526-.532z"/></symbol><symbol viewBox="0 0 19.12 21.28" id="ico-ready" xmlns="http://www.w3.org/2000/svg"><g clip-path="url(#bqclip0)" stroke="#fff" stroke-miterlimit="10" stroke-linecap="round" stroke-linejoin="round"><path d="M9.377 18.682H1.803c-.793 0-1.442-.65-1.442-1.443V1.803A1.446 1.446 0 011.803.361h11.758c.793 0 1.442.649 1.442 1.442v9.45"/><path d="M15.22 21.64a4.256 4.256 0 100-8.512 4.256 4.256 0 000 8.511zM2.813 5.266h9.45m-9.45 2.452h9.45m-9.45 2.452h9.45"/><path d="M15.22 18.826v-2.885l-1.443 1.443m1.443-1.443l1.443 1.443"/></g><defs><clipPath id="bqclip0"><path d="M0 0h19.764v22H0z"/></clipPath></defs></symbol><symbol viewBox="0 0 13.6 18.1" id="ico-recept" xmlns="http://www.w3.org/2000/svg"><g clip-path="url(#brclip0)" stroke="#fff" stroke-width=".1"><path d="M15.66 3.314h0a.47.47 0 01.137.323l-.137-.323zm0 0L12.434.088h0l-.002-.002A.47.47 0 0012.1-.05H3.138a.938.938 0 00-.937.937v16.226c0 .517.42.937.937.937h11.723c.517 0 .937-.42.937-.937V3.648l-.138-.334zm-.805 13.749h0v.044H3.144V.893h8.485v2.289c0 .517.42.937.937.937h2.29v12.944zM12.425.08s0 0 0 0h0zm.147 3.095V1.56l1.616 1.616h-1.616z"/><path d="M12.73 5.716H5.27a.471.471 0 000 .943h7.46a.471.471 0 000-.943zm0 2.544H5.27a.471.471 0 000 .942h7.46a.471.471 0 000-.943zm0 2.542H5.27a.472.472 0 000 .943h7.46a.471.471 0 100-.943zM9 13.346H5.27a.471.471 0 000 .943H9a.471.471 0 100-.943z"/></g><defs><clipPath id="brclip0"><path d="M0 0h18v18H0z"/></clipPath></defs></symbol><symbol viewBox="0 0 21.13 18.58" id="ico-strong" xmlns="http://www.w3.org/2000/svg"><g clip-path="url(#bsclip0)"><path d="M.2 17.572L9.22 1.95c.267-.463.746-.74 1.28-.74s1.013.277 1.28.74l9.02 15.622a1.463 1.463 0 010 1.478c-.268.463-.746.74-1.28.74H1.48a1.463 1.463 0 01-1.28-.74 1.463 1.463 0 010-1.478zm1.067.862a.24.24 0 00.214.123h18.038a.238.238 0 00.214-.123.238.238 0 000-.246l-9.02-15.622a.239.239 0 00-.213-.123.238.238 0 00-.213.123l-9.02 15.622a.239.239 0 000 .246z"/><path d="M9.884 6.812h1.232v6.571H9.884v-6.57zm.616 9.446a.821.821 0 110-1.643.821.821 0 010 1.643z"/></g><defs><clipPath id="bsclip0"><path transform="matrix(-1 0 0 1 21 0)" d="M0 0h21v21H0z"/></clipPath></defs></symbol><symbol viewBox="0 0 21.13 18.58" id="ico-strong-green" xmlns="http://www.w3.org/2000/svg"><g clip-path="url(#btclip0)"><path d="M.2 17.572L9.22 1.95c.267-.463.746-.74 1.28-.74s1.013.277 1.28.74l9.02 15.622a1.463 1.463 0 010 1.478c-.268.463-.746.74-1.28.74H1.48a1.463 1.463 0 01-1.28-.74 1.463 1.463 0 010-1.478zm1.067.862a.24.24 0 00.214.123h18.038a.238.238 0 00.214-.123.238.238 0 000-.246l-9.02-15.622a.239.239 0 00-.213-.123.238.238 0 00-.213.123l-9.02 15.622a.239.239 0 000 .246z"/><path d="M9.884 6.812h1.232v6.571H9.884v-6.57zm.616 9.446a.821.821 0 110-1.643.821.821 0 010 1.643z"/></g><defs><clipPath id="btclip0"><path transform="matrix(-1 0 0 1 21 0)" d="M0 0h21v21H0z"/></clipPath></defs></symbol><symbol viewBox="0 0 19.26 21.5" id="ico-take-away" xmlns="http://www.w3.org/2000/svg"><path d="M10.136 19.644H3a2 2 0 01-2-2V3c0-1.105.892-2 1.997-2h10.92c1.104 0 1.998.895 1.998 2v9.062" stroke="#fff" stroke-linecap="round"/><circle cx="16.102" cy="18.339" r="4.161" stroke="#fff"/><path d="M14.423 18.591l1.074 1.053 2.282-2.237M3.486 5.972h9.632M3.486 8.458h9.632m-9.632 2.486h9.632" stroke="#fff" stroke-linecap="round"/></symbol><symbol viewBox="0 0 18.21 17.78" id="ico-time" xmlns="http://www.w3.org/2000/svg"><path d="M9.442 18.3a8.859 8.859 0 100-17.717 8.859 8.859 0 000 17.718z" stroke="#fff" stroke-miterlimit="10" stroke-linecap="round" stroke-linejoin="round"/><path d="M9.442 6.061v4.08h-3.38" stroke="#fff" stroke-miterlimit="10" stroke-linecap="round" stroke-linejoin="round"/></symbol><symbol viewBox="0 0 15.21 18.2" id="ico-user" xmlns="http://www.w3.org/2000/svg"><mask id="bwa" maskUnits="userSpaceOnUse" x="0" y="-.721"><path d="M0-.721h17v20H0z"/><path d="M8.436 9.977h.117c1.07-.018 1.935-.402 2.574-1.136 1.406-1.618 1.173-4.391 1.147-4.656-.091-1.987-1.011-2.937-1.771-3.38C9.937.471 9.276.292 8.538.278h-.062c-.405 0-1.201.067-1.964.51-.767.444-1.702 1.394-1.794 3.396-.025.265-.259 3.038 1.147 4.656.636.734 1.501 1.118 2.571 1.136zM5.694 4.278c0-.011.003-.022.003-.03.12-2.672 1.98-2.96 2.776-2.96h.044c.985.023 2.662.433 2.775 2.96 0 .012 0 .023.004.03.003.026.259 2.56-.902 3.895-.46.53-1.074.79-1.881.798h-.037c-.803-.007-1.42-.268-1.877-.798-1.157-1.327-.91-3.872-.905-3.895z"/><path d="M15.999 14.577v-.011c0-.03-.004-.06-.004-.093-.022-.738-.07-2.464-1.654-3.016l-.036-.01c-1.647-.43-3.017-1.399-3.031-1.41a.486.486 0 00-.687.123.51.51 0 00.12.7c.063.046 1.516 1.078 3.335 1.555.85.31.945 1.238.971 2.088a.7.7 0 00.004.093c.003.335-.019.853-.077 1.152-.592.342-2.91 1.528-6.438 1.528-3.513 0-5.847-1.19-6.442-1.532a6.603 6.603 0 01-.077-1.152c0-.03.004-.06.004-.093.026-.85.12-1.778.971-2.088 1.819-.477 3.272-1.513 3.334-1.554a.51.51 0 00.121-.7.486.486 0 00-.687-.124c-.014.012-1.376.98-3.03 1.41a.415.415 0 00-.037.01c-1.585.556-1.632 2.282-1.654 3.016 0 .034 0 .064-.004.093v.011c-.004.194-.007 1.19.186 1.689a.476.476 0 00.19.235c.11.074 2.735 1.782 7.128 1.782 4.394 0 7.02-1.711 7.129-1.782a.496.496 0 00.19-.235c.182-.496.179-1.491.175-1.685z"/></mask><path d="M8.436 9.977h.117c1.07-.018 1.935-.402 2.574-1.136 1.406-1.618 1.173-4.391 1.147-4.656-.091-1.987-1.011-2.937-1.771-3.38C9.937.471 9.276.292 8.538.278h-.062c-.405 0-1.201.067-1.964.51-.767.444-1.702 1.394-1.794 3.396-.025.265-.259 3.038 1.147 4.656.636.734 1.501 1.118 2.571 1.136zM5.694 4.278c0-.011.003-.022.003-.03.12-2.672 1.98-2.96 2.776-2.96h.044c.985.023 2.662.433 2.775 2.96 0 .012 0 .023.004.03.003.026.259 2.56-.902 3.895-.46.53-1.074.79-1.881.798h-.037c-.803-.007-1.42-.268-1.877-.798-1.157-1.327-.91-3.872-.905-3.895z"/><path d="M15.999 14.577v-.011c0-.03-.004-.06-.004-.093-.022-.738-.07-2.464-1.654-3.016l-.036-.01c-1.647-.43-3.017-1.399-3.031-1.41a.486.486 0 00-.687.123.51.51 0 00.12.7c.063.046 1.516 1.078 3.335 1.555.85.31.945 1.238.971 2.088a.7.7 0 00.004.093c.003.335-.019.853-.077 1.152-.592.342-2.91 1.528-6.438 1.528-3.513 0-5.847-1.19-6.442-1.532a6.603 6.603 0 01-.077-1.152c0-.03.004-.06.004-.093.026-.85.12-1.778.971-2.088 1.819-.477 3.272-1.513 3.334-1.554a.51.51 0 00.121-.7.486.486 0 00-.687-.124c-.014.012-1.376.98-3.03 1.41a.415.415 0 00-.037.01c-1.585.556-1.632 2.282-1.654 3.016 0 .034 0 .064-.004.093v.011c-.004.194-.007 1.19.186 1.689a.476.476 0 00.19.235c.11.074 2.735 1.782 7.128 1.782 4.394 0 7.02-1.711 7.129-1.782a.496.496 0 00.19-.235c.182-.496.179-1.491.175-1.685z"/><path d="M8.436 9.977l-.002.1h.002v-.1zm.117 0v.1h.002l-.002-.1zm2.574-1.136l.076.065-.075-.065zm1.147-4.656l-.1.005v.005l.1-.01zM10.503.805l-.05.085.05-.086zM8.538.278l.002-.1h-.002v.1zm-2.026.51l.05.087-.05-.087zM4.718 4.185l.1.01V4.19l-.1-.005zm1.147 4.656l.076-.066-.076.066zm-.171-4.563l.098.016.002-.008v-.008h-.1zm.003-.03l-.1-.004v.004h.1zm2.82-2.96l.002-.1h-.003v.1zm2.775 2.96h.1v-.004l-.1.004zm.004.03l.099-.014-.003-.016-.007-.014-.09.044zm-.902 3.895l-.076-.065.075.065zm-1.881.798v.1-.1zm-.037 0v.1-.1zM6.6 8.173l.076-.065-.076.065zm9.4 6.404h-.1v.002l.1-.002zm-.004-.104h.1v-.003l-.1.003zm-1.654-3.016l.033-.094-.033.094zm-.036-.01l.032-.096-.007-.002-.025.097zm-3.031-1.41l.06-.08-.002-.001-.059.081zm-.687.123l-.082-.057.082.057zm.12.7l.059-.08-.059.08zm3.335 1.555l.034-.094-.009-.002-.025.096zm.971 2.088h.1V14.5l-.1.003zm.004.093l.1-.001-.001-.011-.1.012zm-.077 1.152l.05.086.04-.023.008-.044-.098-.02zm-12.88-.004l-.098.02.009.044.04.023.049-.087zm-.077-1.152l.1.002v-.002h-.1zm.004-.093l-.1-.003v.003h.1zm.971-2.088l-.025-.097-.009.004.034.094zm3.334-1.554l.056.084.003-.003-.059-.08zm.121-.7l-.082.056.082-.057zm-.687-.124l-.058-.08-.002.001.06.08zm-3.03 1.41l.024.096-.025-.097zm-.037.01l-.032-.094h-.001l.033.095zM1.005 14.47l-.1-.003v.003h.1zM1 14.562l-.1-.012v.012H1zm0 .011l.1.002v-.002H1zm.186 1.689l.094-.035v-.001l-.094.036zm.19.235l.056-.083-.002-.002-.054.085zm14.257 0l.054.084h.001l-.055-.084zm.19-.235l.093.035-.093-.035zm-7.388-6.184h.06v-.2H8.438v.2zm.059 0h.023v-.2h-.023v.2zm.021 0h.038v-.2H8.517v.2zm.039 0c1.095-.02 1.988-.414 2.648-1.172l-.15-.131c-.62.71-1.457 1.084-2.502 1.102l.004.2zm2.648-1.172c.722-.83 1.019-1.952 1.134-2.888.115-.94.05-1.707.037-1.843l-.2.02c.013.128.077.88-.036 1.798-.113.92-.402 1.995-1.086 2.782l.151.131zm1.171-4.726c-.093-2.022-1.033-3.002-1.82-3.462l-.101.172c.732.428 1.632 1.348 1.721 3.3l.2-.01zM10.554.718C9.97.377 9.294.194 8.54.178l-.004.2c.723.015 1.367.19 1.917.512l.1-.172zM8.538.178h-.025v.2h.025v-.2zm-.025 0H8.499v.2h.014v-.2zm-.015 0h-.022v.2h.022v-.2zm-.022 0c-.414 0-1.23.069-2.015.525l.1.173C7.305.445 8.08.379 8.477.379v-.2zM6.461.704c-.794.46-1.75 1.44-1.842 3.477l.2.01C4.907 2.224 5.821 1.303 6.561.876l-.1-.173zM4.62 4.175a9.01 9.01 0 00.037 1.843c.115.936.412 2.057 1.134 2.888l.15-.131c-.683-.787-.973-1.861-1.086-2.782a8.813 8.813 0 01-.036-1.798l-.199-.02zm1.17 4.731c.657.758 1.55 1.152 2.645 1.171l.004-.2C7.393 9.86 6.556 9.486 5.94 8.775l-.151.131zm.005-4.628v.001s0-.006.002-.01l.001-.02h-.2V4.24v.004a.198.198 0 00-.003.034h.2zm.003-.025c.06-1.31.542-2.02 1.092-2.405.555-.389 1.195-.46 1.584-.46v-.2c-.408 0-1.095.074-1.699.496-.609.427-1.115 1.198-1.177 2.56l.2.009zm2.676-2.864h.014v-.2h-.014v.2zm.014 0h.029v-.2H8.487v.2zm.027 0c.483.01 1.124.117 1.657.52.529.4.965 1.104 1.02 2.344l.2-.01c-.057-1.287-.515-2.051-1.1-2.494-.58-.439-1.269-.549-1.772-.56l-.005.2zm2.678 2.86v.025c.002.01.004.028.014.048l.18-.088a.072.072 0 01.006.022v-.008h-.2zm.005.043l.009.113a8.255 8.255 0 01-.024 1.32c-.08.798-.304 1.74-.864 2.383l.15.131c.602-.691.831-1.684.913-2.494.082-.812.016-1.46.014-1.48l-.198.027zm-.879 3.816c-.438.504-1.023.756-1.806.763l.002.2c.83-.008 1.473-.278 1.955-.832l-.151-.131zm-1.805.763H8.495v.2h.018v-.2zm-.018 0H8.478v.2h.017v-.2zm-.018 0c-.78-.007-1.367-.259-1.802-.763l-.152.13c.479.555 1.125.825 1.952.833l.002-.2zm-1.802-.763c-.558-.64-.783-1.582-.865-2.382a8.345 8.345 0 01-.04-1.014c.006-.262.023-.42.022-.418l-.197-.032c-.004.021-.067.672.016 1.485.083.81.313 1.805.913 2.492l.15-.131zm9.424 6.47V14.566h-.2v.012h.2zm0-.012l-.002-.051-.002-.042h-.2a.893.893 0 00.004.093h.2zm-.004-.096c-.01-.368-.028-1-.247-1.609-.22-.613-.646-1.21-1.474-1.498l-.066.189c.757.263 1.147.805 1.352 1.377.207.576.224 1.177.235 1.547l.2-.006zm-1.722-3.107l-.022-.007a.33.33 0 01-.014-.005l-.065.19.023.007a.199.199 0 01.014.004l.064-.19zm-.043-.014a9.672 9.672 0 01-2.106-.852 10.912 10.912 0 01-.649-.38c-.155-.099-.24-.16-.24-.16l-.122.16c.02.015 1.402.993 3.066 1.426l.05-.194zm-2.998-1.393a.586.586 0 00-.827.147l.164.114a.386.386 0 01.546-.099l.117-.162zm-.827.147a.61.61 0 00.144.84l.117-.163a.41.41 0 01-.097-.563l-.164-.114zm.144.839c.065.047 1.53 1.088 3.367 1.57l.051-.194c-1.8-.472-3.242-1.496-3.301-1.538l-.117.162zm3.358 1.567c.391.142.61.425.736.78.127.361.157.792.17 1.217l.2-.006c-.013-.425-.043-.884-.182-1.277-.14-.398-.395-.734-.855-.902l-.069.188zm.906 1.994c0 .032 0 .068.004.105l.199-.024a.672.672 0 01-.003-.081h-.2zm.004.094c.003.334-.019.844-.075 1.131l.196.039c.06-.309.082-.835.079-1.172l-.2.002zm-.027 1.064c-.581.337-2.883 1.515-6.388 1.515v.2c3.55 0 5.886-1.193 6.488-1.542l-.1-.173zm-6.388 1.515c-3.49 0-5.807-1.182-6.392-1.519l-.1.174c.605.348 2.956 1.545 6.492 1.545v-.2zm-6.344-1.451a6.52 6.52 0 01-.075-1.13l-.2-.005c-.007.339.019.865.079 1.173l.196-.038zm-.075-1.133l.002-.04.002-.053h-.2a.7.7 0 01-.002.042l-.002.051h.2zm.004-.09c.013-.425.043-.855.17-1.216.126-.356.345-.638.736-.78l-.069-.188c-.46.167-.714.503-.855.901-.14.393-.17.852-.182 1.277l.2.006zm.897-1.994c1.837-.482 3.303-1.527 3.364-1.567l-.11-.167c-.064.042-1.505 1.069-3.305 1.54l.05.194zm3.367-1.57a.61.61 0 00.144-.838l-.164.113a.41.41 0 01-.097.563l.117.162zm.144-.838a.586.586 0 00-.827-.148l.117.163a.386.386 0 01.546.098l.164-.113zm-.83-.146l-.061.043a10.668 10.668 0 01-.826.497 9.6 9.6 0 01-2.108.852l.05.193c1.673-.433 3.047-1.41 3.067-1.426l-.121-.159zm-2.994 1.391a.547.547 0 00-.044.014l.064.19a.32.32 0 01.03-.01l-.05-.194zm-.045.014c-.828.29-1.254.888-1.474 1.501-.22.61-.236 1.24-.247 1.606l.2.006c.01-.368.028-.968.235-1.544.205-.572.595-1.115 1.352-1.38l-.066-.189zM.905 14.47c0 .035 0 .058-.003.081l.198.024c.005-.037.005-.072.005-.105h-.2zm-.004.093v.011h.2V14.564h-.2zm0 .01c-.002.098-.004.399.02.738.022.336.07.723.173.988l.186-.072c-.09-.234-.137-.595-.16-.93a8.979 8.979 0 01-.019-.72l-.2-.004zm.193 1.725a.577.577 0 00.23.284l.107-.168a.376.376 0 01-.15-.186l-.187.07zm.227.282c.12.083 2.765 1.8 7.184 1.8v-.2c-4.367 0-6.973-1.698-7.072-1.765l-.112.165zm7.184 1.8c4.42 0 7.065-1.722 7.183-1.798l-.109-.168c-.1.065-2.707 1.766-7.074 1.766v.2zm7.184-1.799a.597.597 0 00.228-.283l-.187-.07a.396.396 0 01-.152.187l.111.166zm.229-.283c.096-.263.142-.649.163-.984a9.42 9.42 0 00.018-.738l-.2.004c.002.095.004.39-.018.721-.021.335-.065.694-.151.927l.188.07z" mask="url(#bwa)"/></symbol><symbol viewBox="0 0 20.14 10.87" id="ico-vk" xmlns="http://www.w3.org/2000/svg"><g clip-path="url(#bxclip0)"><path d="M19.894 13.87a1.274 1.274 0 00-.068-.124c-.347-.594-1.01-1.322-1.989-2.186l-.02-.02-.01-.01-.011-.01h-.01c-.445-.402-.726-.672-.844-.81-.216-.265-.264-.532-.146-.802.083-.205.396-.637.937-1.296.285-.35.51-.63.677-.841 1.201-1.517 1.722-2.486 1.562-2.908l-.062-.099c-.042-.06-.15-.114-.323-.163-.174-.05-.396-.058-.666-.025l-3 .02a.409.409 0 00-.208.005l-.135.03-.052.024-.042.03a.455.455 0 00-.114.104.672.672 0 00-.104.173c-.327.798-.698 1.54-1.114 2.226-.257.409-.493.763-.709 1.063-.215.3-.395.521-.541.663a3.713 3.713 0 01-.396.341c-.118.086-.208.122-.27.109a8.11 8.11 0 01-.178-.04.672.672 0 01-.234-.242 1.044 1.044 0 01-.12-.386 4.02 4.02 0 01-.036-.4 7.856 7.856 0 01.005-.475c.007-.205.01-.343.01-.416 0-.25.006-.523.016-.816l.026-.697c.007-.172.01-.353.01-.544 0-.192-.012-.342-.036-.45a1.485 1.485 0 00-.109-.317.542.542 0 00-.213-.238 1.24 1.24 0 00-.35-.133c-.367-.08-.836-.122-1.405-.129-1.291-.013-2.12.066-2.489.238a1.394 1.394 0 00-.396.296c-.125.146-.142.225-.052.238.417.06.712.2.885.425l.063.119c.049.086.097.237.146.455.048.218.08.458.093.722.035.482.035.894 0 1.237-.034.343-.067.61-.098.8a1.545 1.545 0 01-.141.466 1.935 1.935 0 01-.125.217.175.175 0 01-.052.05.816.816 0 01-.281.05c-.098 0-.216-.047-.354-.14a2.455 2.455 0 01-.432-.38 5.104 5.104 0 01-.506-.678c-.187-.29-.381-.633-.583-1.028l-.166-.287a24.203 24.203 0 01-.427-.807c-.18-.352-.34-.694-.48-1.024a.657.657 0 00-.249-.316l-.052-.03a.725.725 0 00-.167-.084 1.15 1.15 0 00-.24-.064l-2.852.02c-.292 0-.49.062-.594.188l-.042.059A.306.306 0 000 4.98c0 .073.02.162.063.267.416.93.869 1.827 1.358 2.691.49.864.915 1.56 1.276 2.087.36.528.729 1.026 1.104 1.494.375.468.623.768.744.9.122.132.217.231.287.297l.26.237c.167.159.411.348.734.57.323.22.68.438 1.073.652.392.214.848.39 1.37.524.52.136 1.027.19 1.52.164h1.197c.243-.02.427-.093.552-.218l.041-.05a.625.625 0 00.078-.182.956.956 0 00.037-.272c-.007-.284.015-.54.067-.767.052-.227.111-.399.178-.514a1.267 1.267 0 01.4-.436.691.691 0 01.084-.034c.166-.053.362-.002.588.153a3.4 3.4 0 01.636.574c.197.228.435.483.713.767.278.283.52.494.729.633l.208.119c.139.079.32.151.542.217.221.066.416.083.583.05l2.665-.04c.264 0 .469-.041.614-.123.146-.083.233-.174.26-.273a.728.728 0 00.006-.336 1.194 1.194 0 00-.073-.262z"/></g><defs><clipPath id="bxclip0"><path d="M0 0h20v19H0z"/></clipPath></defs></symbol><symbol viewBox="0 0 19.14 19.1" id="ico-zoom" xmlns="http://www.w3.org/2000/svg"><g clip-path="url(#byclip0)"><path d="M18.87 17.996l-4.585-4.585a8.118 8.118 0 001.97-5.31c0-4.497-3.657-8.151-8.15-8.151-4.498 0-8.152 3.658-8.152 8.151 0 4.494 3.658 8.152 8.151 8.152a8.118 8.118 0 005.31-1.97L18 18.866a.622.622 0 00.435.183.62.62 0 00.436-1.054zM1.186 8.1A6.922 6.922 0 018.1 1.187a6.922 6.922 0 016.914 6.914c0 3.81-3.1 6.918-6.914 6.918-3.81 0-6.914-3.103-6.914-6.918z" stroke="#fff" stroke-width=".1"/></g><defs><clipPath id="byclip0"><path d="M0 0h19v19H0z"/></clipPath></defs></symbol></svg>